<svg width="16" height="16" viewBox="0 0 16 16" fill="none" xmlns="http://www.w3.org/2000/svg">
<g id="eye-close-line">
<path id="Vector" d="M6.22854 12.5213L4.94064 12.1761L5.46562 10.2169C4.67288 9.92494 3.94449 9.49987 3.30752 8.96894L1.87197 10.4045L0.929162 9.46167L2.36472 8.02614C1.57062 7.07354 1.01351 5.91645 0.783936 4.64546L2.09599 4.40691C2.60201 7.20841 5.05296 9.33341 8.00022 9.33341C10.9475 9.33341 13.3985 7.20841 13.9045 4.40691L15.2165 4.64546C14.9869 5.91645 14.4298 7.07354 13.6358 8.02614L15.0713 9.46167L14.1285 10.4045L12.693 8.96894C12.056 9.49987 11.3275 9.92494 10.5348 10.2169L11.0598 12.1761L9.77195 12.5213L9.24675 10.5612C8.84162 10.6306 8.42515 10.6667 8.00022 10.6667C7.57535 10.6667 7.15882 10.6306 6.75375 10.5612L6.22854 12.5213Z" fill="#4f46e5"/>
</g>
</svg>
